<svg xmlns="http://www.w3.org/2000/svg" viewBox="0 0 14.54 10.07"><title>eye</title><g id="a9a52975-858a-4e1b-b68b-cd1e956c3bd4" data-name="Layer 2"><g id="a2f89bf0-907a-44e8-a71e-74431214d041" data-name="Layer 1"><path d="M12.37,6a.44.44,0,0,1-.32-.13.45.45,0,0,1,0-.64L13.4,3.83a.45.45,0,0,1,.64,0,.47.47,0,0,1,0,.64L12.69,5.82A.45.45,0,0,1,12.37,6Z" fill="#333949"/><path d="M2.17,6a.44.44,0,0,1-.32-.13L.5,4.47a.45.45,0,0,1,0-.64.45.45,0,0,1,.64,0L2.49,5.18a.47.47,0,0,1,0,.64A.45.45,0,0,1,2.17,6Z" fill="#333949"/><path d="M10.11,4.77a.54.54,0,0,1-.22,0,.46.46,0,0,1-.18-.62l1.41-2.54a.45.45,0,0,1,.61-.18.46.46,0,0,1,.18.62L10.5,4.54A.43.43,0,0,1,10.11,4.77Z" fill="#333949"/><path d="M4.4,4.77A.46.46,0,0,1,4,4.54L2.6,2a.45.45,0,0,1,.17-.62.46.46,0,0,1,.62.18L4.79,4.1a.46.46,0,0,1-.17.62A.59.59,0,0,1,4.4,4.77Z" fill="#333949"/><path d="M7.18,4.27a.46.46,0,0,1-.45-.46V.45a.45.45,0,0,1,.9,0V3.81A.46.46,0,0,1,7.18,4.27Z" fill="#333949"/><path d="M12.81,5.39a8.79,8.79,0,0,0-11.19.06A11.14,11.14,0,0,0,0,6.77,10,10,0,0,0,2,8.31,8.76,8.76,0,0,0,12.4,8.4a10.64,10.64,0,0,0,2.14-1.63A10.69,10.69,0,0,0,12.81,5.39ZM7.27,9.22A2.45,2.45,0,1,1,9.72,6.77,2.45,2.45,0,0,1,7.27,9.22Z" fill="#333949"/><circle cx="7.27" cy="6.77" r="0.49" fill="#333949"/></g></g></svg>