<svg xmlns="http://www.w3.org/2000/svg" width="448.1" height="512" style=""><rect id="backgroundrect" width="100%" height="100%" x="0" y="0" fill="none" stroke="none"/><g class="currentLayer" style=""><title>Layer 1</title><path d="M100.94102566242218,466.5897445678711 H8.04102566242218 V167.4897445678711 h92.9 V466.5897445678711 zM54.44102566242218,126.68974456787109 C24.74102566242218,126.68974456787109 0.6410256624221802,102.0897445678711 0.6410256624221802,72.38974456787109 S24.74102566242218,18.589744567871094 54.44102566242218,18.589744567871094 s53.8,24.1 53.8,53.8 s-24.1,54.3 -53.8,54.3 zM448.6410256624222,466.5897445678711 h-92.7 V320.98974456787107 c0,-34.7 -0.7000000000000001,-79.2 -48.3,-79.2 c-48.3,0 -55.7,37.7 -55.7,76.7 V466.5897445678711 h-92.8 V167.4897445678711 h89.1 v40.8 h1.3 c12.4,-23.5 42.7,-48.3 87.9,-48.3 c94,0 111.3,61.9 111.3,142.3 V466.5897445678711 h-0.1 z" id="svg_1" class="" fill="#333949" fill-opacity="1"/></g></svg>