<svg xmlns="http://www.w3.org/2000/svg" viewBox="0 0 106.55 105.57"><title>logo</title><g id="b6c6391a-5e89-404b-ac33-2827eea22e6e" data-name="Layer 2"><g id="a8371276-cecb-41a5-958b-66f8a818347d" data-name="Layer 1"><path d="M46.55,9.31l-3.11-.68L44.2,13,49,14.41l-4.55,3.08-3.84-1.86-.92-5.76,5.2-4.31,3.94.91Z" fill="#333949"/><path d="M56.91,8.54l-.8,5.14,1.65,1.64-3.92,1.26L52,14.65l1.64-11L53.62.1,54.2,0l.94,2.49,2.88-1-1,6.09L61,6.14l2.71,2.54-1,5.93,2.08,1.7-4.35,1.2-1.83-1.93,1-5.79Z" fill="#333949"/><path d="M72.94,14l-2.13,4.1,1.56,2.5-4.64-.47-1.1-2.41,2.85-5.57L68.14,9.59l4.33.26.93,3.3L76.75,12,79,14.75,75,16.58Z" fill="#333949"/><path d="M80.32,16.31l4.16,1.34.31,3.09-4,4.46.82,2.55-4.3-1.35-.47-2.61L81,19.15Zm4.55.54-.18-1.29h4.85L89.65,17Z" fill="#333949"/><path d="M85.59,26.72l2.26-1.52,5.61,2.29,1.29,3.91-2.92-.59-1-3.24-1.3.88,1.42,5-2.71,1.83-5.38-2.75-1-3.71,3,.92.87,2.91,1.35-.88Z" fill="#333949"/><path d="M94.37,35.36l3.18,1.69,1.91-.56,2.27,3.14-3.07,1L100,44.45l-2.75-.75-.77-2.26-4.66,1.48-.19,3.39-3.34-3L89,39.76l6.26-1.92Z" fill="#333949"/><path d="M99.4,47.15,101.47,51l-1.92,2.45-6,.41-1.18,2.41-2.16-4,1.47-2.2,6.24-.43Zm2.9,3.54.77-1L106.55,53l-.9,1.1Z" fill="#333949"/><path d="M98.09,63.69l-5.16-1.1L91.2,64.14l-1-4,2-1.7,6.13,1.28,2.13-2,.9,4.25-2.3,1.9,1.13,3.94-2.7,2.59-5.86-1.35-1.81,2-1-4.4,2-1.72,5.45,1.22Z" fill="#333949"/><path d="M95.1,76.24l-1.2,6.33-4.42,1.9-4.57-3.06L82,82.68l1-4.56,2.55-.65.18-3.57,3.51-1.34,2.17,1.35-.59,2.19Zm-6.69,3.11.8-2.8-2.95,1.34Zm2-2.22-.9,2.93.72.46,3.21-1.67Z" fill="#333949"/><path d="M71.69,91.85l1.9,5.32-4.79,5.58-4.47-.32-2-5.64-2.19-3.23,4.32-5.82,6.56.78-2.47,2.85Zm-4.29-.46-4.27-.52,2.18,3Zm2.91,7.9-1.65-4.45h-3l1.76,4.63Z" fill="#333949"/><path d="M50.49,96.93l0,5.4,1.89,1.36-3.68,1.88-2.11-1.64,0-6.24L44.36,96l3.81-1.76,2.34,1.68,3.62-1.78,3.08,2.06-.05,6,2.48,1.35-4.27,1.89-2.11-1.65L53.33,98Z" fill="#333949"/><path d="M41.87,98.89,41,101.46,35.14,103l-3.39-2.34,2.68-1.3,2.76,2,.51-1.49-4.16-3.1,1.06-3.1,5.94-1.07,3,2.35-3,1.11-2.45-1.79-.54,1.52Z" fill="#333949"/><path d="M24.52,94.08,27.67,90,27,87.72l4.05.77.67,2.56L25,99.9l-1.67,3.17-.55-.19.36-2.64-3-.48,3.74-4.89-4.08-.61-1.17-3.53L22.35,86l-1-2.49,4.39,1,.69,2.58-3.64,4.61Z" fill="#333949"/><path d="M12,79.63l.71,3.1,3.61-2.55-.74-4.91,4.73,2.79,0,4.27-4.81,3.3L9.33,82.77l-.86-4Z" fill="#333949"/><path d="M6.87,70.59l5-1.47.78-2.19,2.81,3-1,2.46L3.85,75.58.63,77.15l-.34-.48,1.85-1.91L0,72.59l5.91-1.73L3,68l1.14-3.54,5.79-1.63.66-2.6,2.93,3.43-1,2.48L6.87,67.65Z" fill="#333949"/><path d="M1.45,51.82l3.08-3.19,2.09.06,1,5.81.86,0,2.65-5.68L13,54.05l-2.66,4.57-6.07-.4Zm4.84,2.61-.77-2.61L3.7,54.25Z" fill="#333949"/><path d="M13.59,38.59l-5-2-2,1.22-.33-4.12,2.33-1.32,5.89,2.45.92,6.79-3.74,3.49L6.14,42.72l-2.2,1.77-.1-4.67L6.16,38.5l5.38,2.31Z" fill="#333949"/><path d="M12.4,27.23l2.3-6,4.68-1.1,4,3.83,3.05-.75-1.75,4.32L22,27.7l-.81,3.49-3.68.69-1.9-1.71,1-2.05Zm4.72-.06,1.41-2.73-.64-.57-3.45,1.07Zm2.41-1.82L18.24,28l3.15-.79Z" fill="#333949"/></g></g></svg>